<svg width="33" height="32" viewBox="0 0 33 32" fill="none" xmlns="http://www.w3.org/2000/svg">
<path d="M7.1665 7.95499H11.3665M11.3665 7.95499H14.1665M11.3665 7.95499V6.66699M16.4998 7.95499H14.1665M14.1665 7.95499C13.6732 9.71499 12.6438 11.379 11.4665 12.8417M11.4665 12.8417C10.4932 14.0537 9.41717 15.1257 8.4665 16.0003M11.4665 12.8417C10.8665 12.1377 10.0265 11.0003 9.7865 10.4857M11.4665 12.8417L13.2665 14.7123" stroke="white" stroke-width="2" stroke-linecap="round" stroke-linejoin="round"/>
<path d="M9.8625 22.6377C9.93584 24.931 10.1852 26.3377 11.0438 27.3843C11.2653 27.6541 11.5127 27.9015 11.7825 28.123C13.2598 29.3337 15.4492 29.3337 19.8332 29.3337C24.2172 29.3337 26.4078 29.3337 27.8838 28.123C28.1541 27.9008 28.4003 27.6545 28.6225 27.3843C29.8332 25.907 29.8332 23.7177 29.8332 19.3337C29.8332 14.951 29.8332 12.759 28.6225 11.283C28.401 11.0132 28.1536 10.7658 27.8838 10.5443C26.8412 9.68966 25.4425 9.43766 23.1665 9.36433M9.8625 22.6377C7.56917 22.5643 6.1625 22.315 5.11584 21.4563C4.84604 21.2349 4.59863 20.9875 4.37717 20.7177C3.1665 19.2403 3.1665 17.051 3.1665 12.667C3.1665 8.28433 3.1665 6.09233 4.37717 4.61633C4.59863 4.34652 4.84604 4.09912 5.11584 3.87766C6.59317 2.66699 8.7825 2.66699 13.1665 2.66699C17.5492 2.66699 19.7412 2.66699 21.2172 3.87766C21.487 4.09912 21.7344 4.34652 21.9558 4.61633C22.8145 5.66299 23.0638 7.06966 23.1372 9.36299L23.1665 9.36433M9.8625 22.6377L23.1665 9.36433" stroke="white" stroke-width="2" stroke-linecap="round" stroke-linejoin="round"/>
<path d="M17.833 25.334L18.9437 22.6673M18.9437 22.6673L21.1663 17.334L23.389 22.6673M18.9437 22.6673H23.389M24.4997 25.334L23.389 22.6673" stroke="white" stroke-width="2" stroke-linecap="round" stroke-linejoin="round"/>
</svg>
