<svg width="33" height="32" viewBox="0 0 33 32" fill="none" xmlns="http://www.w3.org/2000/svg">
<g clip-path="url(#clip0_459_1121)">
<path d="M27.8335 22.0002C26.7268 22.0002 25.8335 21.1069 25.8335 20.0002V16.6669C25.8335 15.5602 26.7268 14.6669 27.8335 14.6669C28.9402 14.6669 29.8335 15.5602 29.8335 16.6669V20.0002C29.8335 21.1069 28.9402 22.0002 27.8335 22.0002ZM27.1668 26.6669H28.5002V24.6135C30.7535 24.2935 32.5002 22.3469 32.5002 20.0002H31.1668C31.1668 20.8843 30.8156 21.7321 30.1905 22.3572C29.5654 22.9823 28.7176 23.3335 27.8335 23.3335C26.9494 23.3335 26.1016 22.9823 25.4765 22.3572C24.8514 21.7321 24.5002 20.8843 24.5002 20.0002H23.1668C23.1668 22.3469 24.9135 24.2935 27.1668 24.6135V26.6669ZM12.5002 16.0002C9.5535 16.0002 7.16683 13.6135 7.16683 10.6669C7.16659 9.81272 7.3715 8.971 7.76433 8.21254C8.15717 7.45407 8.72642 6.80106 9.4242 6.30843C10.122 5.8158 10.9279 5.49797 11.7741 5.38169C12.6203 5.2654 13.482 5.35406 14.2868 5.6402C13.1279 7.05873 12.4965 8.83512 12.5002 10.6669C12.5002 12.5735 13.1668 14.3202 14.2868 15.6935C13.7268 15.8935 13.1268 16.0002 12.5002 16.0002ZM9.98016 17.5069C9.10633 18.1217 8.39412 18.9387 7.90425 19.8883C7.41438 20.8378 7.16139 21.8918 7.16683 22.9602V26.6669H1.8335V22.9602C1.8335 21.4669 2.64683 20.0935 3.98016 19.4135C5.6335 18.5602 7.66016 17.8269 9.98016 17.5069ZM15.1668 10.6669C15.1668 7.7202 17.5535 5.33354 20.5002 5.33354C23.4468 5.33354 25.8335 7.7202 25.8335 10.6669C25.8335 13.6135 23.4468 16.0002 20.5002 16.0002C17.5535 16.0002 15.1668 13.6135 15.1668 10.6669ZM17.8335 10.6669C17.8335 12.1335 19.0335 13.3335 20.5002 13.3335C21.9668 13.3335 23.1668 12.1335 23.1668 10.6669C23.1668 9.2002 21.9668 8.0002 20.5002 8.0002C19.0335 8.0002 17.8335 9.2002 17.8335 10.6669ZM20.5002 20.0002C17.3402 20.0002 14.7802 20.9735 13.1935 21.7869C12.7668 22.0002 12.5002 22.4535 12.5002 22.9602V24.0002H22.0602C22.7268 25.1469 23.7268 26.0802 24.9268 26.6669H9.8335V22.9602C9.8335 21.4669 10.6468 20.0935 11.9802 19.4135C14.2202 18.2669 17.1268 17.3335 20.5002 17.3335C21.0202 17.3335 21.5268 17.3602 22.0202 17.4002C21.5802 18.1869 21.2868 19.0802 21.1935 20.0135C20.9668 20.0002 20.7402 20.0002 20.5002 20.0002Z" fill="white"/>
</g>
<defs>
<clipPath id="clip0_459_1121">
<rect width="32" height="32" fill="white" transform="translate(0.5)"/>
</clipPath>
</defs>
</svg>
