<svg width="159" height="43" viewBox="0 0 159 43" fill="none" xmlns="http://www.w3.org/2000/svg">
<path d="M43.6099 21.2521C43.6099 32.6449 34.2075 41.882 22.6074 41.882C11.0073 41.882 1.60498 32.6449 1.60498 21.2521C1.60498 9.85933 11.0073 0.625 22.6074 0.625C34.2075 0.625 43.6099 9.85933 43.6099 21.2521Z" fill="#CBE2FF"/>
<path d="M34.7758 4.43848C37.2215 7.80899 38.6585 11.935 38.6585 16.3903C38.6585 27.783 29.2561 37.0174 17.6561 37.0174C13.1197 37.0174 8.91866 35.6061 5.48682 33.2041C9.2934 38.4563 15.5429 41.8822 22.6066 41.8822C34.2067 41.8822 43.609 32.6451 43.609 21.2523C43.609 14.3148 40.1237 8.17704 34.7758 4.43848Z" fill="#BED8FB"/>
<path d="M37.9089 6.22632C33.8206 2.21104 28.3854 0 22.6065 0C16.8276 0 11.3924 2.21104 7.30408 6.22632C3.21855 10.2388 0.967285 15.5769 0.967285 21.2525C0.967285 26.9309 3.21855 32.2662 7.30408 36.2815C11.3924 40.294 16.8276 42.505 22.6065 42.505C28.3854 42.505 33.8206 40.294 37.9089 36.2815C41.9945 32.2662 44.2457 26.9309 44.2457 21.2525C44.2457 15.5769 41.9945 10.2388 37.9089 6.22632ZM42.9637 20.6299H35.2886C35.1956 15.2448 33.9248 10.1973 31.6792 6.35638C30.5916 4.49679 29.335 3.01354 27.9628 1.95091C36.4071 4.21453 42.682 11.6917 42.9637 20.6299ZM22.6065 30.5837C22.2543 30.5837 21.9697 30.8632 21.9697 31.2091V41.2238C19.2254 40.9581 16.6388 38.9602 14.6355 35.5288C12.4124 31.7266 11.1896 26.6542 11.1896 21.2525C11.1896 15.8508 12.4124 10.7812 14.6355 6.97625C16.6388 3.54762 19.2254 1.54966 21.9697 1.28124V11.1603C21.9697 11.5062 22.2543 11.7857 22.6065 11.7857C22.9587 11.7857 23.2433 11.5062 23.2433 11.1603V1.28124C25.9876 1.54966 28.5742 3.54762 30.5775 6.97625C32.7978 10.7812 34.0234 15.8508 34.0234 21.2525C34.0234 26.6542 32.7978 31.7266 30.5775 35.5288C28.5742 38.9602 25.9876 40.9581 23.2405 41.2238V31.2091C23.2433 30.8632 22.9559 30.5837 22.6065 30.5837ZM17.2502 1.95091C15.8781 3.01354 14.6214 4.49679 13.5338 6.35638C11.2882 10.1973 10.0174 15.2448 9.92446 20.6299H2.2493C2.52824 11.6917 8.80587 4.21453 17.2502 1.95091ZM2.2493 21.8779H9.92446C10.0174 27.2602 11.2882 32.3077 13.5338 36.1486C14.6186 38.011 15.8781 39.4915 17.2502 40.5541C8.80587 38.2905 2.52824 30.8134 2.2493 21.8779ZM27.96 40.5541C29.3321 39.4915 30.5916 38.011 31.6792 36.1486C33.9248 32.3077 35.1956 27.2602 35.2886 21.8779H42.9637C42.682 30.8134 36.4043 38.2933 27.96 40.5541Z" fill="#80B4FB"/>
<path d="M32.3106 31.6022H12.9029C10.043 31.6022 7.72412 29.3248 7.72412 26.5133V15.8566C7.72412 13.045 10.043 10.7676 12.9029 10.7676H32.3106C35.1704 10.7676 37.4893 13.045 37.4893 15.8566V26.5133C37.4893 29.3248 35.1704 31.6022 32.3106 31.6022Z" fill="#F4FBFF"/>
<path d="M34.6971 11.3457C35.0746 12.0514 35.2859 12.8539 35.2859 13.7034V26.2252C35.2859 27.999 33.8208 29.438 32.0147 29.438H10.7136C9.84577 29.438 9.03148 29.2277 8.31299 28.8597C9.17799 30.4896 10.9136 31.602 12.917 31.602H32.2965C35.1648 31.602 37.4893 29.319 37.4893 26.502V15.8674C37.4893 13.9026 36.3566 12.198 34.6971 11.3457Z" fill="#E4F6FF"/>
<path d="M33.7196 16.3853H28.6029V14.0054C28.6029 13.6623 28.3183 13.3828 27.9661 13.3828C27.6167 13.3828 27.3321 13.6623 27.3321 14.0054V16.3853H22.4323C22.0829 16.3853 21.7983 16.6648 21.7983 17.0079C21.7983 17.3538 22.0829 17.6333 22.4323 17.6333H30.9556C30.285 18.9229 29.3185 20.3176 28.1774 21.6375C28.0703 21.7593 27.9633 21.8811 27.8534 22C27.349 21.4079 26.9236 20.8101 26.608 20.2539C26.4389 19.9523 26.0529 19.8416 25.7458 20.0076C25.4387 20.1737 25.326 20.5555 25.495 20.8572C25.8698 21.5185 26.3798 22.227 26.9827 22.9188C25.9712 23.9316 24.9231 24.795 23.9397 25.4204C23.6467 25.6058 23.5622 25.9932 23.7538 26.2838C23.8749 26.4664 24.0778 26.5688 24.2863 26.5688C24.4046 26.5688 24.5258 26.5356 24.63 26.4664C25.6754 25.805 26.7799 24.8974 27.8421 23.8403C27.9069 23.9039 27.9717 23.9676 28.0365 24.0284C29.1016 25.0523 30.2681 25.9157 31.319 26.4609C31.4148 26.5079 31.5163 26.53 31.6149 26.53C31.8431 26.53 32.0657 26.411 32.1784 26.198C32.3418 25.8936 32.2235 25.5145 31.9107 25.354C30.964 24.8642 29.9046 24.0783 28.9269 23.1374C28.8536 23.0682 28.7832 22.999 28.7156 22.9298C28.8593 22.7693 29.003 22.6088 29.1438 22.4456C30.516 20.8627 31.6543 19.1636 32.37 17.6333H33.7196C34.0718 17.6333 34.3564 17.3538 34.3564 17.0079C34.3564 16.6648 34.0718 16.3853 33.7196 16.3853Z" fill="#2B4D66"/>
<path d="M20.708 26.3606L16.8733 16.3791C16.8704 16.3736 16.8676 16.3681 16.8648 16.3625C16.7324 16.0415 16.4168 15.834 16.0618 15.834C15.7068 15.834 15.3912 16.0415 15.2588 16.3625C15.256 16.3681 15.2531 16.3736 15.2531 16.3791L11.3817 26.3579C11.2578 26.6816 11.4212 27.0414 11.7509 27.1631C12.0692 27.2849 12.444 27.1272 12.5708 26.8034L13.3766 24.7196H18.7188L19.519 26.8006C19.643 27.1244 20.0093 27.2849 20.3389 27.1631C20.6658 27.0414 20.832 26.6816 20.708 26.3606ZM13.8612 23.4716L16.0618 17.8015L18.2398 23.4716H13.8612Z" fill="#2B4D66"/>
<path d="M50.5368 20.5383C50.2888 20.5383 50.1113 20.4525 50.0071 20.2837C49.9 20.1149 49.9056 19.9129 50.0183 19.6749L52.8134 13.587C52.9092 13.3877 53.0219 13.2438 53.1515 13.1553C53.2783 13.0667 53.4277 13.0225 53.6023 13.0225C53.7658 13.0225 53.9123 13.0667 54.0419 13.1553C54.1687 13.2438 54.2814 13.3877 54.38 13.587L57.1863 19.6749C57.299 19.9185 57.3047 20.126 57.2089 20.2948C57.1103 20.4553 56.9412 20.5383 56.7017 20.5383C56.4988 20.5383 56.3411 20.4885 56.2284 20.3944C56.1213 20.3003 56.0283 20.1564 55.9466 19.9627L55.4169 18.7562H51.7653L51.2468 19.9627C51.1567 20.162 51.0609 20.3114 50.9651 20.4055C50.8664 20.494 50.7228 20.5383 50.5368 20.5383ZM53.5798 14.55L52.2386 17.6936H54.9435L53.6023 14.55H53.5798Z" fill="#5086C1"/>
<path d="M60.2005 20.5383C59.7722 20.5383 59.5581 20.3225 59.5581 19.8853V13.6866C59.5581 13.4735 59.6145 13.3103 59.7272 13.1996C59.8399 13.0833 59.9807 13.0225 60.1554 13.0225C60.3189 13.0225 60.44 13.0529 60.5161 13.111C60.5978 13.1719 60.6964 13.2715 60.8091 13.4099L64.596 18.236V13.6534C64.596 13.2328 64.8101 13.0225 65.2384 13.0225C65.6498 13.0225 65.8583 13.2328 65.8583 13.6534V19.9074C65.8583 20.1011 65.8076 20.2561 65.7118 20.3723C65.6131 20.483 65.4779 20.5383 65.306 20.5383C65.1482 20.5383 65.0186 20.5079 64.9228 20.4498C64.8242 20.3834 64.72 20.281 64.6073 20.1398L60.8204 15.3027V19.8853C60.8204 20.3225 60.6119 20.5383 60.2005 20.5383Z" fill="#5086C1"/>
<path d="M71.1692 20.5383C70.7184 20.5383 70.493 20.3031 70.493 19.8299V17.0737L68.2163 13.9412C68.1262 13.8167 68.0839 13.6838 68.0924 13.5427C68.1065 13.396 68.1656 13.2743 68.2727 13.1774C68.3769 13.075 68.5235 13.0225 68.7122 13.0225C68.9884 13.0225 69.2307 13.1664 69.4335 13.4542L71.1917 15.8893L72.9499 13.4542C73.0626 13.2992 73.1697 13.1885 73.2768 13.1221C73.381 13.0557 73.5134 13.0225 73.6712 13.0225C73.9474 13.0225 74.1277 13.1221 74.2122 13.3213C74.3024 13.5206 74.2629 13.7309 74.0995 13.9523L71.8454 17.0848V19.8299C71.8454 20.3031 71.62 20.5383 71.1692 20.5383Z" fill="#5086C1"/>
<path d="M77.1524 15.6569C77.0537 15.7676 76.9523 15.8312 76.8481 15.8451C76.7494 15.8617 76.6593 15.8423 76.5776 15.7897C76.5015 15.7399 76.4592 15.6652 76.4536 15.5683C76.4536 15.4659 76.5015 15.3553 76.6001 15.2363C76.6818 15.1256 76.7494 15.0149 76.803 14.9042C76.8537 14.7935 76.8931 14.6911 76.9157 14.5943C76.6959 14.5721 76.5212 14.4946 76.386 14.3618C76.2507 14.229 76.1831 14.0519 76.1831 13.8305C76.1831 13.5953 76.2535 13.4071 76.3972 13.266C76.5381 13.1276 76.7297 13.0557 76.972 13.0557C77.22 13.0557 77.4116 13.1387 77.5468 13.2992C77.6877 13.4625 77.761 13.6977 77.761 14.0076C77.761 14.2511 77.7187 14.514 77.637 14.7935C77.5609 15.0675 77.4003 15.3553 77.1524 15.6569Z" fill="#5086C1"/>
<path d="M82.8847 20.5491C82.4113 20.5491 81.9492 20.4965 81.4984 20.3941C81.0532 20.2917 80.6644 20.1368 80.3263 19.9292C80.1685 19.8268 80.0699 19.6968 80.0333 19.5418C79.9938 19.3868 80.0051 19.2429 80.0671 19.1101C80.1262 18.9773 80.2192 18.886 80.3488 18.8334C80.4841 18.7836 80.6362 18.8085 80.8109 18.9109C81.118 19.088 81.4449 19.2208 81.7915 19.3093C82.1352 19.3924 82.5015 19.4311 82.8847 19.4311C83.4398 19.4311 83.8455 19.3398 84.1019 19.1544C84.3555 18.9717 84.4851 18.731 84.4851 18.4349C84.4851 18.1914 84.3949 18.0032 84.2146 17.8704C84.0343 17.732 83.7243 17.6158 83.2904 17.5272L82.1183 17.2837C80.7884 17.0042 80.1234 16.3318 80.1234 15.2691C80.1234 14.8126 80.2474 14.4141 80.4954 14.0737C80.7433 13.7361 81.0842 13.4732 81.521 13.2878C81.9633 13.0969 82.4705 13 83.0425 13C83.4707 13 83.8708 13.0526 84.2484 13.155C84.6316 13.2601 84.9753 13.4151 85.2853 13.6199C85.4262 13.7167 85.5107 13.8357 85.5332 13.9741C85.5614 14.1152 85.5445 14.248 85.4769 14.3726C85.4149 14.4916 85.3135 14.5773 85.1726 14.6271C85.0373 14.6714 84.8795 14.6437 84.6992 14.5386C84.4344 14.3919 84.1695 14.2895 83.899 14.2287C83.6342 14.1622 83.3468 14.129 83.0312 14.129C82.5409 14.129 82.1577 14.2287 81.8816 14.4279C81.6111 14.6271 81.4759 14.8928 81.4759 15.2249C81.4759 15.4684 81.5576 15.6676 81.7238 15.8226C81.8957 15.972 82.1887 16.0855 82.6029 16.1657L83.7525 16.4093C84.4513 16.5587 84.9725 16.7856 85.3191 17.0955C85.6628 17.4055 85.8375 17.8233 85.8375 18.3463C85.8375 18.7836 85.7164 19.171 85.4769 19.5086C85.2346 19.8407 84.8936 20.1008 84.4513 20.2834C84.0061 20.4605 83.4848 20.5491 82.8847 20.5491Z" fill="#5086C1"/>
<path d="M92.9883 20.4491C92.5206 20.4491 92.2896 20.2222 92.2896 19.7628V13.7524C92.2896 13.3041 92.5178 13.0771 92.977 13.0771C93.4279 13.0771 93.6533 13.3041 93.6533 13.7524V19.309H96.7301C97.1189 19.309 97.3162 19.4972 97.3162 19.8735C97.3162 20.2582 97.1189 20.4491 96.7301 20.4491H92.9883Z" fill="#5086C1"/>
<path d="M99.5387 20.5383C99.2908 20.5383 99.1133 20.4525 99.009 20.2837C98.902 20.1149 98.9076 19.9129 99.0203 19.6749L101.815 13.587C101.911 13.3877 102.024 13.2438 102.153 13.1553C102.28 13.0667 102.43 13.0225 102.604 13.0225C102.768 13.0225 102.914 13.0667 103.044 13.1553C103.171 13.2438 103.283 13.3877 103.382 13.587L106.188 19.6749C106.301 19.9185 106.307 20.126 106.211 20.2948C106.112 20.4553 105.943 20.5383 105.704 20.5383C105.501 20.5383 105.343 20.4885 105.23 20.3944C105.123 20.3003 105.03 20.1564 104.949 19.9627L104.419 18.7562H100.767L100.249 19.9627C100.159 20.162 100.063 20.3114 99.967 20.4055C99.8684 20.494 99.7247 20.5383 99.5387 20.5383ZM102.582 14.55L101.241 17.6936H103.945L102.604 14.55H102.582Z" fill="#5086C1"/>
<path d="M109.201 20.5383C108.773 20.5383 108.559 20.3225 108.559 19.8853V13.6866C108.559 13.4735 108.615 13.3103 108.728 13.1996C108.841 13.0833 108.982 13.0225 109.156 13.0225C109.32 13.0225 109.441 13.0529 109.517 13.111C109.599 13.1719 109.697 13.2715 109.81 13.4099L113.597 18.236V13.6534C113.597 13.2328 113.811 13.0225 114.239 13.0225C114.651 13.0225 114.859 13.2328 114.859 13.6534V19.9074C114.859 20.1011 114.809 20.2561 114.713 20.3723C114.614 20.483 114.479 20.5383 114.307 20.5383C114.149 20.5383 114.02 20.5079 113.924 20.4498C113.825 20.3834 113.721 20.281 113.608 20.1398L109.821 15.3027V19.8853C109.821 20.3225 109.613 20.5383 109.201 20.5383Z" fill="#5086C1"/>
<path d="M121.297 20.5491C120.469 20.5491 119.77 20.3996 119.201 20.0952C118.637 19.7936 118.204 19.3619 117.905 18.8002C117.612 18.2329 117.465 17.566 117.465 16.7967C117.465 16.0163 117.615 15.3439 117.916 14.7821C118.223 14.2148 118.663 13.7748 119.235 13.4649C119.804 13.155 120.491 13 121.297 13C121.686 13 122.081 13.0498 122.481 13.1439C122.886 13.2408 123.264 13.3985 123.619 13.6199C123.768 13.7084 123.856 13.8274 123.878 13.9741C123.906 14.1235 123.884 14.2619 123.811 14.3947C123.743 14.5275 123.636 14.6216 123.495 14.6714C123.351 14.724 123.196 14.7019 123.033 14.605C122.762 14.45 122.486 14.3394 122.21 14.2729C121.94 14.2065 121.635 14.1733 121.297 14.1733C120.5 14.1733 119.9 14.4002 119.494 14.8485C119.088 15.2996 118.885 15.9499 118.885 16.7967C118.885 17.6462 119.091 18.2965 119.505 18.7448C119.925 19.1876 120.545 19.409 121.365 19.409C121.596 19.409 121.833 19.3924 122.075 19.3536C122.323 19.3176 122.565 19.2595 122.808 19.1765V17.4719H121.647C121.278 17.4719 121.094 17.3058 121.094 16.9738C121.094 16.6417 121.278 16.4757 121.647 16.4757H123.394C123.76 16.4757 123.946 16.6583 123.946 17.0181V19.5529C123.946 19.8711 123.816 20.0786 123.563 20.1727C123.247 20.2834 122.886 20.3775 122.481 20.4495C122.081 20.5159 121.686 20.5491 121.297 20.5491Z" fill="#5086C1"/>
<path d="M129.828 20.5494C128.805 20.5494 128.025 20.2893 127.484 19.7635C126.943 19.2405 126.672 18.4657 126.672 17.439V13.6977C126.672 13.2494 126.898 13.0225 127.349 13.0225C127.799 13.0225 128.025 13.2494 128.025 13.6977V17.4279C128.025 18.0921 128.177 18.5902 128.487 18.9222C128.794 19.2488 129.242 19.4093 129.828 19.4093C131.023 19.4093 131.62 18.7507 131.62 17.4279V13.6977C131.62 13.2494 131.845 13.0225 132.296 13.0225C132.747 13.0225 132.973 13.2494 132.973 13.6977V17.439C132.973 18.4657 132.705 19.2405 132.172 19.7635C131.645 20.2893 130.865 20.5494 129.828 20.5494Z" fill="#5086C1"/>
<path d="M135.833 20.5383C135.585 20.5383 135.407 20.4525 135.303 20.2837C135.196 20.1149 135.202 19.9129 135.314 19.6749L138.109 13.587C138.205 13.3877 138.318 13.2438 138.447 13.1553C138.574 13.0667 138.724 13.0225 138.898 13.0225C139.062 13.0225 139.208 13.0667 139.338 13.1553C139.465 13.2438 139.577 13.3877 139.676 13.587L142.482 19.6749C142.595 19.9185 142.601 20.126 142.505 20.2948C142.406 20.4553 142.237 20.5383 141.998 20.5383C141.795 20.5383 141.637 20.4885 141.524 20.3944C141.417 20.3003 141.324 20.1564 141.242 19.9627L140.713 18.7562H137.061L136.543 19.9627C136.453 20.162 136.357 20.3114 136.261 20.4055C136.162 20.494 136.019 20.5383 135.833 20.5383ZM138.876 14.55L137.535 17.6936H140.239L138.898 14.55H138.876Z" fill="#5086C1"/>
<path d="M148.45 20.5491C147.621 20.5491 146.922 20.3996 146.353 20.0952C145.79 19.7936 145.356 19.3619 145.057 18.8002C144.764 18.2329 144.618 17.566 144.618 16.7967C144.618 16.0163 144.767 15.3439 145.068 14.7821C145.376 14.2148 145.815 13.7748 146.387 13.4649C146.956 13.155 147.644 13 148.45 13C148.838 13 149.233 13.0498 149.633 13.1439C150.039 13.2408 150.416 13.3985 150.771 13.6199C150.921 13.7084 151.008 13.8274 151.031 13.9741C151.059 14.1235 151.036 14.2619 150.963 14.3947C150.895 14.5275 150.788 14.6216 150.647 14.6714C150.504 14.724 150.349 14.7019 150.185 14.605C149.915 14.45 149.639 14.3394 149.363 14.2729C149.092 14.2065 148.788 14.1733 148.45 14.1733C147.652 14.1733 147.052 14.4002 146.646 14.8485C146.241 15.2996 146.038 15.9499 146.038 16.7967C146.038 17.6462 146.243 18.2965 146.658 18.7448C147.077 19.1876 147.697 19.409 148.517 19.409C148.748 19.409 148.985 19.3924 149.227 19.3536C149.475 19.3176 149.718 19.2595 149.96 19.1765V17.4719H148.799C148.43 17.4719 148.247 17.3058 148.247 16.9738C148.247 16.6417 148.43 16.4757 148.799 16.4757H150.546C150.912 16.4757 151.098 16.6583 151.098 17.0181V19.5529C151.098 19.8711 150.969 20.0786 150.715 20.1727C150.399 20.2834 150.039 20.3775 149.633 20.4495C149.233 20.5159 148.838 20.5491 148.45 20.5491Z" fill="#5086C1"/>
<path d="M154.591 20.4491C154.109 20.4491 153.87 20.2139 153.87 19.7407V13.8188C153.87 13.3483 154.109 13.1104 154.591 13.1104H158.378C158.744 13.1104 158.93 13.2847 158.93 13.6306C158.93 13.9931 158.744 14.173 158.378 14.173H155.177V16.1875H158.152C158.519 16.1875 158.705 16.3646 158.705 16.7189C158.705 17.0731 158.519 17.2502 158.152 17.2502H155.177V19.3865H158.378C158.744 19.3865 158.93 19.5636 158.93 19.9178C158.93 20.272 158.744 20.4491 158.378 20.4491H154.591Z" fill="#5086C1"/>
<path d="M75.196 34.8577C74.948 34.8577 74.7705 34.7719 74.6663 34.6031C74.5592 34.4343 74.5648 34.2323 74.6775 33.9943L77.4726 27.9063C77.5684 27.7071 77.6811 27.5632 77.8107 27.4746C77.9375 27.3861 78.0868 27.3418 78.2615 27.3418C78.4249 27.3418 78.5715 27.3861 78.7011 27.4746C78.8279 27.5632 78.9406 27.7071 79.0392 27.9063L81.8455 33.9943C81.9582 34.2378 81.9639 34.4453 81.8681 34.6141C81.7694 34.7746 81.6004 34.8577 81.3609 34.8577C81.158 34.8577 81.0002 34.8079 80.8875 34.7138C80.7805 34.6197 80.6875 34.4758 80.6058 34.2821L80.0761 33.0755H76.4244L75.906 34.2821C75.8158 34.4813 75.72 34.6307 75.6242 34.7248C75.5256 34.8134 75.3819 34.8577 75.196 34.8577ZM78.239 28.8693L76.8978 32.0129H79.6027L78.2615 28.8693H78.239Z" fill="#5086C1"/>
<path d="M87.7002 34.8684C86.9254 34.8684 86.2604 34.719 85.7053 34.4146C85.1474 34.1046 84.7192 33.6674 84.4205 33.0974C84.1275 32.5301 83.981 31.8632 83.981 31.0939C83.981 30.319 84.1275 29.6521 84.4205 29.0904C84.7192 28.5314 85.1474 28.0942 85.7053 27.7842C86.2604 27.4743 86.9254 27.3193 87.7002 27.3193C88.089 27.3193 88.4722 27.3719 88.8498 27.4743C89.2245 27.5712 89.5514 27.7068 89.8303 27.8839C90.0163 28.0028 90.1262 28.144 90.1572 28.3045C90.1938 28.4677 90.1712 28.6199 90.0895 28.7583C90.0135 28.8911 89.8979 28.9797 89.7401 29.024C89.588 29.0682 89.4189 29.0295 89.233 28.9022C89.0076 28.7638 88.7653 28.6642 88.5117 28.6033C88.2637 28.5369 88.0073 28.5037 87.7453 28.5037C86.9845 28.5037 86.4069 28.7306 86.0096 29.1789C85.618 29.63 85.4236 30.2692 85.4236 31.0939C85.4236 31.9213 85.618 32.5605 86.0096 33.0088C86.4069 33.4599 86.9845 33.684 87.7453 33.684C88.0158 33.684 88.2778 33.6508 88.5342 33.5844C88.7962 33.518 89.0442 33.4156 89.2781 33.2745C89.4725 33.1582 89.6415 33.1195 89.7852 33.1638C89.9346 33.2081 90.0473 33.2966 90.1233 33.4294C90.1966 33.5567 90.2191 33.6951 90.191 33.8501C90.16 33.9995 90.067 34.1323 89.9092 34.2485C89.6218 34.4478 89.2837 34.6028 88.8949 34.7134C88.5032 34.8158 88.1059 34.8684 87.7002 34.8684Z" fill="#5086C1"/>
<path d="M92.7184 34.8577C92.4705 34.8577 92.293 34.7719 92.1887 34.6031C92.0816 34.4343 92.0873 34.2323 92.2 33.9943L94.9951 27.9063C95.0909 27.7071 95.2036 27.5632 95.3332 27.4746C95.46 27.3861 95.6093 27.3418 95.784 27.3418C95.9474 27.3418 96.0939 27.3861 96.2235 27.4746C96.3503 27.5632 96.463 27.7071 96.5616 27.9063L99.368 33.9943C99.4807 34.2378 99.4863 34.4453 99.3905 34.6141C99.2919 34.7746 99.1228 34.8577 98.8834 34.8577C98.6805 34.8577 98.5227 34.8079 98.41 34.7138C98.3029 34.6197 98.2099 34.4758 98.1282 34.2821L97.5985 33.0755H93.9469L93.4285 34.2821C93.3383 34.4813 93.2425 34.6307 93.1467 34.7248C93.0481 34.8134 92.9044 34.8577 92.7184 34.8577ZM95.7614 28.8693L94.4203 32.0129H97.1252L95.784 28.8693H95.7614Z" fill="#5086C1"/>
<path d="M102.46 34.7684C101.978 34.7684 101.739 34.5332 101.739 34.06V28.1381C101.739 27.6677 101.978 27.4297 102.46 27.4297H104.523C105.776 27.4297 106.743 27.7479 107.419 28.3816C108.101 29.0098 108.445 29.9147 108.445 31.0935C108.445 32.2668 108.101 33.1745 107.419 33.8165C106.743 34.453 105.776 34.7684 104.523 34.7684H102.46ZM103.102 33.6615H104.432C106.16 33.6615 107.025 32.8065 107.025 31.0935C107.025 29.3834 106.16 28.5255 104.432 28.5255H103.102V33.6615Z" fill="#5086C1"/>
<path d="M111.752 34.7684C111.27 34.7684 111.031 34.5332 111.031 34.06V28.1381C111.031 27.6677 111.27 27.4297 111.752 27.4297H115.539C115.905 27.4297 116.091 27.604 116.091 27.9499C116.091 28.3124 115.905 28.4923 115.539 28.4923H112.338V30.5069H115.314C115.68 30.5069 115.866 30.684 115.866 31.0382C115.866 31.3924 115.68 31.5695 115.314 31.5695H112.338V33.7058H115.539C115.905 33.7058 116.091 33.8829 116.091 34.2371C116.091 34.5913 115.905 34.7684 115.539 34.7684H111.752Z" fill="#5086C1"/>
<path d="M119.213 34.8577C118.799 34.8577 118.593 34.6474 118.593 34.2267V27.9727C118.593 27.5521 118.807 27.3418 119.236 27.3418C119.408 27.3418 119.546 27.375 119.653 27.4414C119.757 27.5078 119.85 27.6241 119.934 27.7846L122.38 32.2232L124.837 27.7846C124.919 27.6241 125.009 27.5078 125.108 27.4414C125.203 27.375 125.344 27.3418 125.525 27.3418C125.93 27.3418 126.133 27.5521 126.133 27.9727V34.2267C126.133 34.6474 125.93 34.8577 125.525 34.8577C125.11 34.8577 124.905 34.6474 124.905 34.2267V29.8213L122.91 33.3966C122.842 33.5155 122.766 33.6041 122.684 33.6622C122.608 33.7148 122.504 33.7397 122.369 33.7397C122.234 33.7397 122.124 33.712 122.042 33.6511C121.957 33.593 121.884 33.5072 121.817 33.3966L119.822 29.8434V34.2267C119.822 34.6474 119.619 34.8577 119.213 34.8577Z" fill="#5086C1"/>
<path d="M131.454 34.8577C131.004 34.8577 130.778 34.6224 130.778 34.1492V31.3931L128.501 28.2605C128.411 28.136 128.369 28.0032 128.378 27.862C128.392 27.7154 128.451 27.5936 128.558 27.4968C128.662 27.3944 128.809 27.3418 128.997 27.3418C129.274 27.3418 129.516 27.4857 129.719 27.7735L131.477 30.2087L133.235 27.7735C133.348 27.6185 133.455 27.5078 133.562 27.4414C133.666 27.375 133.799 27.3418 133.956 27.3418C134.233 27.3418 134.413 27.4414 134.497 27.6407C134.588 27.8399 134.548 28.0502 134.385 28.2716L132.131 31.4041V34.1492C132.131 34.6224 131.905 34.8577 131.454 34.8577Z" fill="#5086C1"/>
</svg>
