<svg width="32" height="32" viewBox="0 0 32 32" fill="none" xmlns="http://www.w3.org/2000/svg">
<g clip-path="url(#clip0_459_1090)">
<path d="M14.5145 1.14258H28.9191C29.9911 1.14258 30.8596 2.01115 30.8596 3.08315V18.5757C30.8596 19.65 29.9911 20.5186 28.9191 20.5186H17.1431M7.19792 9.14486C8.25909 9.14486 9.2768 8.72332 10.0272 7.97296C10.7775 7.2226 11.1991 6.20489 11.1991 5.14372C11.1991 4.08255 10.7775 3.06485 10.0272 2.31449C9.2768 1.56413 8.25909 1.14258 7.19792 1.14258C6.13675 1.14258 5.11904 1.56413 4.36869 2.31449C3.61833 3.06485 3.19678 4.08255 3.19678 5.14372C3.19678 6.20489 3.61833 7.2226 4.36869 7.97296C5.11904 8.72332 6.13675 9.14486 7.19792 9.14486Z" stroke="white" stroke-width="2.28571" stroke-linecap="round" stroke-linejoin="round"/>
<path d="M20.5716 12.6326C20.5716 11.3366 19.5202 10.2852 18.2242 10.2852H7.19792C5.59226 10.2858 4.05254 10.9239 2.91716 12.0593C1.78179 13.1946 1.14367 14.7344 1.14307 16.34V21.7137H3.73735L4.60364 30.8566H9.79221L11.7854 14.9823H18.2242C19.5202 14.9823 20.5716 13.9309 20.5716 12.6326Z" stroke="white" stroke-width="2.28571" stroke-linecap="round" stroke-linejoin="round"/>
</g>
<defs>
<clipPath id="clip0_459_1090">
<rect width="32" height="32" fill="white"/>
</clipPath>
</defs>
</svg>
